<svg xmlns="http://www.w3.org/2000/svg" viewBox="0 0 64 64" role="img" aria-label="墨图工坊">
  <defs>
    <linearGradient id="bg" x1="0" y1="0" x2="1" y2="1">
      <stop offset="0%" stop-color="#0f172a" />
      <stop offset="100%" stop-color="#2563eb" />
    </linearGradient>
    <linearGradient id="ink" x1="0" y1="0" x2="1" y2="1">
      <stop offset="0%" stop-color="#f59e0b" />
      <stop offset="100%" stop-color="#fb7185" />
    </linearGradient>
  </defs>
  <rect width="64" height="64" rx="16" fill="url(#bg)" />
  <path d="M18 22c0-3.314 2.686-6 6-6h16c3.314 0 6 2.686 6 6v20c0 3.314-2.686 6-6 6H24c-3.314 0-6-2.686-6-6V22Z" fill="#eff6ff" opacity="0.94" />
  <path d="M24 22h16c1.105 0 2 .895 2 2v16.5L34 33l-6 5-4-3.5V24c0-1.105.895-2 2-2Z" fill="url(#ink)" />
  <circle cx="37.5" cy="28.5" r="3.5" fill="#eff6ff" />
  <path d="M22 46h20" stroke="#0f172a" stroke-width="3" stroke-linecap="round" opacity="0.24" />
</svg>
